Coordinates
version=1
nRows=19
nColumns=24
inDegrees=yes

Units are S.I. units (second, meters, Newtons, ...)
Angles are in degrees.

endheader
time	pelvis_tilt	pelvis_list	pelvis_rotation	pelvis_tx	pelvis_ty	pelvis_tz	hip_flexion_r	hip_adduction_r	hip_rotation_r	knee_angle_r	ankle_angle_r	subtalar_angle_r	mtp_angle_r	hip_flexion_l	hip_adduction_l	hip_rotation_l	knee_angle_l	ankle_angle_l	subtalar_angle_l	mtp_angle_l	lumbar_extension	lumbar_bending	lumbar_rotation
      1.21616667	     -6.38521477	     -1.50616507	     -9.83796555	      0.03066799	      0.86643798	      0.32043626	    -13.93173723	      5.12447962	      5.38476334	    -10.55573689	     18.70990474	     11.59009991	     12.68754254	     35.54472932	     -5.93968692	    -10.23083687	     -6.00268698	      3.38994320	     -0.56012665	      2.89208199	     -0.43784563	      3.93858298	     13.47410451
      1.22033333	     -6.48513848	     -1.39658619	     -9.89300045	      0.03639920	      0.86525823	      0.32032870	    -13.94843359	      4.93596465	      5.27546597	    -11.06374943	     18.72303783	     11.90792975	     14.27272557	     35.76848294	     -5.84275316	    -10.18586876	     -6.66082342	      3.24645616	     -0.64444870	      3.19220328	     -0.30353802	      3.71852793	     13.63198838
      1.22450000	     -6.60757746	     -1.32939058	     -9.93210159	      0.04213328	      0.86411805	      0.32026261	    -13.98290082	      4.82438132	      5.38009167	    -11.50007753	     18.53485871	     11.72932541	     14.38111652	     36.00664802	     -5.78026764	    -10.08307837	     -7.33043926	      2.97727090	     -0.81591832	      3.21881402	     -0.14803104	      3.56162184	     13.57338956
      1.22866667	     -6.67234931	     -1.23966931	     -9.94079712	      0.04796262	      0.86309626	      0.32012941	    -14.06934352	      4.67475892	      5.36393873	    -11.95178723	     18.34745763	     11.68085484	     14.47409442	     36.18194040	     -5.66945776	    -10.02056525	     -8.03070291	      2.70497875	     -0.99298370	      3.24450717	     -0.03384265	      3.37144843	     13.57333096
      1.23283333	     -6.82179276	     -1.13490166	     -9.95322604	      0.05379368	      0.86200392	      0.31998232	    -14.02632935	      4.52537159	      5.37521255	    -12.47548243	     18.16383276	     11.69243250	     14.66951850	     36.43198528	     -5.54816848	     -9.89181861	     -8.71985923	      2.34156727	     -1.24538411	      3.30623596	      0.16078916	      3.15594553	     13.56615630
      1.23700000	     -6.93372543	     -1.01932514	     -9.94154806	      0.05969200	      0.86102013	      0.31976996	    -14.01379106	      4.35759860	      5.33117781	    -13.01309507	     17.92353600	     11.70025000	     14.91752412	     36.63637766	     -5.39217874	     -9.77660426	     -9.41916527	      1.92480635	     -1.54617732	      3.38964021	      0.32939459	      2.93063071	     13.55206284
      1.24116667	     -7.00237538	     -0.88468119	     -9.91375275	      0.06565183	      0.86015356	      0.31952078	    -14.03289732	      4.16042469	      5.23469629	    -13.56200185	     17.59177768	     11.66979961	     19.19410244	     36.77995836	     -5.19639976	     -9.66486727	    -10.10420056	      1.45990136	     -1.97257513	      4.99087912	      0.44717663	      2.68042415	     13.52398762
      1.24533333	     -7.12071483	     -0.76822389	     -9.86555364	      0.07163081	      0.85927606	      0.31926150	    -13.99631730	      4.00360780	      5.18566286	    -14.12608133	     17.21709986	     11.63277752	     19.22638351	     36.99484213	     -5.02198072	     -9.56738250	    -10.84431613	      0.96982136	     -2.21678355	      5.00767091	      0.62268017	      2.45111161	     13.49529384
      1.24950000	     -7.24651691	     -0.64002813	     -9.80316254	      0.07762099	      0.85842993	      0.31893280	    -13.91319705	      3.83564577	      5.10112828	    -14.76498021	     16.90633321	     11.61496793	     19.36848698	     37.21291385	     -4.81247836	     -9.39541981	    -11.58071753	      0.44815856	     -2.71897374	      5.06772858	      0.81271129	      2.22417749	     13.42899904
      1.25366667	     -7.36175515	     -0.48559944	     -9.72910237	      0.08368862	      0.85768549	      0.31860046	    -13.83306154	      3.63996776	      5.01188676	    -15.40352877	     16.44610107	     11.58469916	     19.50513858	     37.40725049	     -4.57632460	     -9.28124264	    -12.30576212	     -0.08758776	     -3.05474041	      5.11727980	      0.99339715	      1.93056634	     13.37230700
      1.25783333	     -7.48865287	     -0.33237917	     -9.64089202	      0.08977296	      0.85697365	      0.31822522	    -13.71188827	      3.44938208	      4.90136931	    -16.09518586	     15.97198077	     11.55086628	     19.68851021	     37.62152136	     -4.32970660	     -9.13546757	    -13.05695972	     -0.62063906	     -3.48022656	      5.17724432	      1.19476123	      1.65462530	     13.29750895
      1.26200000	     -7.56242568	     -0.13888278	     -9.55077233	      0.09590476	      0.85640291	      0.31778231	    -13.60387566	      3.19295079	      4.71675195	    -16.84986738	     15.47814059	     11.56339300	     23.50591137	     37.76173728	     -4.02461020	     -8.99906438	    -13.77757555	     -1.18387678	     -4.10126537	      6.44909947	      1.32810654	      1.33664474	     13.20021847
      1.26616667	     -7.69428966	     -0.01469638	     -9.40235481	      0.10202523	      0.85578881	      0.31730944	    -13.45352112	      3.05097626	      4.58731274	    -17.58391825	     14.89255054	     11.46090783	     23.58968784	     38.01610840	     -3.77330070	     -8.79654745	    -14.61668425	     -1.64431402	     -4.48777020	      6.47544152	      1.52256506	      1.10082955	     13.10367964
      1.27033333	     -7.80831318	      0.15493311	     -9.26237691	      0.10819481	      0.85527471	      0.31681683	    -13.27528352	      2.84767825	      4.42193570	    -18.39324358	     14.30152926	     11.42156932	     23.76918697	     38.23059663	     -3.47598240	     -8.61921389	    -15.42475562	     -2.10144427	     -4.95101975	      6.51441038	      1.70670348	      0.80358159	     12.99002518
      1.27450000	     -7.91482876	      0.33250264	     -9.11007581	      0.11439724	      0.85482949	      0.31628915	    -13.07928722	      2.63353341	      4.23425144	    -19.24301695	     13.66349361	     11.39528121	     24.04067783	     38.44135764	     -3.16284919	     -8.43814818	    -16.25481090	     -2.50078169	     -5.39942166	      6.56216479	      1.88063096	      0.49706153	     12.87489606
      1.27866667	     -8.01307687	      0.51573420	     -8.94260498	      0.12062809	      0.85445814	      0.31572451	    -12.86553829	      2.41168768	      4.02453899	    -20.13412363	     12.97583527	     11.37608995	     24.39334050	     38.64722416	     -2.83511386	     -8.25506623	    -17.10477997	     -2.84022433	     -5.82641816	      6.61202528	      2.04869213	      0.17952542	     12.75299047
      1.28283333	     -8.10664522	      0.70441488	     -8.76543749	      0.12687933	      0.85414713	      0.31513293	    -12.62337790	      2.18153276	      3.79210258	    -21.07987004	     12.24568614	     11.36988440	     24.93729807	     38.84749110	     -2.49335613	     -8.05048559	    -17.96740164	     -3.11495493	     -6.26911318	      6.67446205	      2.21001433	     -0.14290774	     12.61320571
      1.28700000	     -8.11784068	      0.92348598	     -8.59223309	      0.13323117	      0.85404729	      0.31453505	    -12.46359479	      1.89315510	      3.53155466	    -22.00078835	     11.31498580	     11.35924778	     29.59642080	     38.94527446	     -2.12470050	     -7.94210308	    -18.82737854	     -3.29816534	     -6.58482111	      7.08494681	      2.26730815	     -0.52386533	     12.53217715
      1.29116667	     -8.16812643	      1.11224983	     -8.38203207	      0.13957237	      0.85390276	      0.31392028	    -12.23904905	      1.66205296	      3.27567442	    -22.98544867	     10.46877351	     11.30098115	     29.62520830	     39.10933438	     -1.77212565	     -7.75430786	    -19.75462781	     -3.29698302	     -6.78733208	      7.08750636	      2.38376673	     -0.87875845	     12.46834774
